<svg width="520" height="520" viewBox="0 0 520 520" fill="none" xmlns="http://www.w3.org/2000/svg">
<path d="M26.333 184.167L27.0311 181.88C29.6253 173.357 18.9532 174.507 15.7504 168.37L20.334 153.328C24.4522 162.664 33.2474 159.662 34.6819 170.199C41.6001 160.912 48.122 168.787 60.2146 163.981L55.6322 179.023C48.5324 182.477 38.795 175.334 36.0615 184.306L35.2815 186.872L51.7314 191.836L47.585 205.436L31.1403 200.462L30.3783 202.97C27.609 212.054 39.7053 211.452 43.6842 218.25L39.1019 233.293C32.0021 223.115 21.5014 225.294 21.3569 213.932C15.1968 221.93 8.94984 214.566 0 220.074L4.58361 205.032C10.5058 202.439 18.9494 208.402 21.4796 200.098L22.1918 197.757L8.09706 193.499L12.237 179.903L26.333 184.167Z" fill="white"/>
<path d="M50.4359 127.013L59.6005 138.524L64.8017 130.504L50.4359 127.013ZM80.9945 134.61L74.1428 132.836L65.5816 146.045L70.0246 151.531L61.2115 165.131L36.2146 127.916L45.3435 113.83L89.7129 121.155L80.9945 134.61Z" fill="white"/>
<path d="M141.186 42.9116L143.743 57.3729L152.146 52.7868L141.186 42.9116ZM164.42 64.072L159.242 59.2655L145.408 66.8177L146.689 73.7497L132.445 81.5224L128.255 36.9576L143.008 28.9061L178.51 56.3808L164.42 64.072Z" fill="white"/>
<path d="M217.078 16.1777L214.89 30.7079L224.326 29.0192L217.078 16.1777ZM232.368 43.6118L228.995 37.4121L213.457 40.1974L212.46 47.179L196.465 50.0458L206.704 6.43754L223.275 3.46753L248.192 40.7717L232.368 43.6118Z" fill="white"/>
<path d="M272.255 13.8425C271.426 26.0446 269.44 28.5383 267.298 30.7263C267.176 30.8345 267.104 31.0051 267.041 31.0586L266.851 31.2255L285.754 32.5016L287.121 12.3957L272.422 11.3985L272.255 13.8425ZM300.571 33.4988L307.166 33.9433L305.858 53.1195L291.803 52.1706L292.394 43.4505L261.069 41.3427L260.473 50.0552L246.415 49.1115L247.719 29.9354C255.129 30.4346 257.633 22.0188 258.764 5.39999L259.13 0L302.646 2.92921L300.571 33.4988Z" fill="white"/>
<path d="M340.253 24.6155L331.4 36.3744L340.51 39.3432L340.253 24.6155ZM340.637 55.9938L340.619 48.9407L325.618 44.0477L321.414 49.7228L305.965 44.6806L335.766 11.1373L351.764 16.3577L355.918 60.9772L340.637 55.9938Z" fill="white"/>
<path d="M395.142 85.5528L409.494 63.4703L386.95 80.2687L377.389 74.0995L383.536 46.8642L369.242 68.8525L357.078 61.0034L379.5 26.5114L395.931 37.11L390.022 65.2622L413.396 48.3696L429.778 58.9364L407.356 93.4285L395.142 85.5528Z" fill="white"/>
<path d="M445.921 94.0527C436.674 102.095 433.498 102.454 430.431 102.495C430.269 102.486 430.097 102.558 430.017 102.549L429.769 102.536L442.222 116.747L457.453 103.501L447.769 92.4493L445.921 94.0527ZM451.977 127.884L456.322 132.845L441.788 145.475L432.529 134.903L439.137 129.16L418.501 105.609L411.893 111.35L402.634 100.784L417.166 88.1498C422.042 93.7166 429.781 89.5379 442.375 78.589L446.47 75.0308L475.143 107.751L451.977 127.884Z" fill="white"/>
<path d="M486.267 149.419L471.671 151.516L476.009 160.026L486.267 149.419ZM464.305 171.896L469.289 166.892L462.141 152.883L455.144 153.938L447.784 139.516L492.635 136.726L500.258 151.669L471.585 186.166L464.305 171.896Z" fill="white"/>
<path d="M498.336 196.199L500.722 205.503C501.141 207.139 501.345 207.929 501.773 208.662C502.676 210.293 504.294 210.963 506.162 210.487C507.181 210.23 507.772 209.718 508.07 209.462C509.522 208.073 509.247 206.276 508.814 204.588L506.153 194.204L498.336 196.199ZM518.571 204.988C520.189 211.308 521.465 217.23 516.369 221.588C515.227 222.541 513.387 223.853 510.05 224.701C508.124 225.191 502.743 226.319 498.274 222.289C494.682 219.116 493.208 213.605 492.094 209.259L489.334 198.486L475.229 202.071L471.585 187.861L511.565 177.688L518.571 204.988Z" fill="white"/>
<path d="M137.104 91.1822L126.297 80.0576L122.076 84.1241L96.5008 57.7103L85.7341 68.0581L96.1581 78.8223L83.2039 91.2677L72.7812 80.4983L62.0554 90.8002L90.6962 120.381L101.377 110.12L90.3855 98.7664L103.379 86.2804L114.376 97.6291L118.701 93.4734L126.455 101.452L137.104 91.1822Z" fill="white"/>
<path d="M33.4952 387.353L47.4991 379.975L39.0517 364.076L25.0516 371.452L18.1091 358.378L54.5861 339.162L61.5542 352.286L48.2752 359.282L56.6919 375.133L69.9709 368.137L76.9659 381.31L40.4901 400.527L33.4952 387.353Z" fill="white"/>
<path d="M90.1004 408.446C84.4441 402.08 77.2049 403.329 72.1713 407.773C68.0135 411.439 64.436 418.483 70.7508 425.586C77.6115 433.305 85.0399 429.011 88.4498 426C91.8238 423.03 96.7309 415.901 90.1004 408.446ZM79.3529 442.112C73.0739 440.495 68.4596 436.711 63.6152 431.261C57.8016 424.72 55.8033 419.481 55.0004 415.684C52.9981 405.782 58.726 399.407 61.6168 396.863C69.407 389.99 76.9978 390.448 81.1569 391.526C85.2751 392.564 90.6194 395.237 96.745 402.124C106.429 413.02 106.929 420.438 105.499 426.206C104.903 428.52 103.299 433.126 98.6168 437.26C95.8564 439.686 89.1402 444.601 79.3529 442.112Z" fill="white"/>
<path d="M130.708 454.288C132.575 455.586 134.532 455.955 135.936 453.947C137.207 452.135 136.5 450.505 134.628 449.206L122.409 440.705L118.724 445.954L130.708 454.288ZM109.392 459.064L122.192 467.968C124.538 469.6 126.658 469.936 128.296 467.595C130.203 464.872 127.984 463.26 127.168 462.693L113.509 453.191L109.392 459.064ZM144.312 444.646C149.296 448.115 153.761 453.133 149.142 459.725C146.562 463.399 142.918 464.842 137.352 462.816C139.223 464.617 140.906 466.284 141.582 468.88C142.422 471.953 141.461 474.339 139.725 476.824C139.021 477.826 137.198 480.32 133.64 481.331C127.916 482.885 122.22 479.421 117.907 476.42L91.8826 458.322L115.504 424.616L144.312 444.646Z" fill="white"/>
<path d="M192.06 510.368L205.776 471.598L219.78 476.509L206.064 515.282L192.06 510.368ZM160.045 489.251L171.79 493.376C175.317 494.615 176.764 493.33 177.735 490.585C178.492 488.442 177.112 486.043 174.852 485.252L162.939 481.069L160.045 489.251ZM170.653 459.27L166.048 472.285L179.778 477.102C190.363 480.817 195.099 485.998 191.699 495.612C188.302 505.222 180.535 506.324 171.825 503.269L142.937 493.123L156.648 454.355L170.653 459.27Z" fill="white"/>
<path d="M219.844 516.509L223.123 475.521L266.54 478.967L265.809 488.142L237.132 485.863L236.595 492.598L263.112 494.706L262.372 503.934L235.855 501.826L235.332 508.39L264.533 510.709L263.789 520L219.844 516.509Z" fill="white"/>
<path d="M333.118 509.504L326.014 479.722L311.234 483.217L311.857 485.822C316.691 506.09 315.099 513.768 298.501 517.695L295.889 518.315L293.454 508.125L295.272 507.69C300.842 506.373 301.856 504.337 297.554 486.277L295.163 476.253L338.017 466.112L347.557 506.09L333.118 509.504Z" fill="white"/>
<path d="M386.536 449.7C379.147 453.946 379.852 460.533 383.206 466.333C385.981 471.127 391.064 476.411 399.319 471.67C408.285 466.521 404.654 459.193 402.372 455.262C400.125 451.376 395.201 444.727 386.536 449.7ZM416.399 467.371C413.549 473.176 409.918 476.338 403.585 479.973C395.986 484.336 391.448 484.655 387.551 484.677C380.397 484.681 375.557 480.405 372.814 476.941L366.383 480.629L374.556 494.759L361.692 502.146L341.08 466.526L353.943 459.14L361.71 472.559L368.394 468.723C366.396 462.474 367.565 457.369 369.026 454.31C370.871 450.495 373.56 446.398 381.565 441.801C394.226 434.532 400.609 436.114 405.994 438.666C408.155 439.708 412.363 442.201 415.489 447.597C417.325 450.779 420.811 458.322 416.399 467.371Z" fill="white"/>
<path d="M427.599 422.712C436.506 431.131 437.17 434.244 437.499 437.287C437.504 437.448 437.589 437.614 437.589 437.696L437.598 437.943L450.638 424.248L435.957 410.379L425.813 421.027L427.599 422.712ZM460.859 413.51L465.409 408.734L479.409 421.966L469.713 432.152L463.348 426.139L441.738 448.833L448.099 454.844L438.405 465.034L424.401 451.803C429.512 446.433 424.599 439.151 412.466 427.685L408.524 423.956L438.541 392.425L460.859 413.51Z" fill="white"/>
<path d="M443.485 386.211L450.724 373.299L470.065 384.059L465.17 358.4L460.529 355.818L467.768 342.909L503.789 362.952L496.55 375.86L477.263 365.126L482.157 390.79L486.745 393.346L479.509 406.254L443.485 386.211Z" fill="white"/>
</svg>
