<svg width="520" height="520" viewBox="0 0 520 520" fill="none" xmlns="http://www.w3.org/2000/svg">
<path d="M285.055 265.6C286.436 279.505 276.242 291.897 262.278 293.276C248.319 294.656 235.878 284.498 234.494 270.592C233.109 256.682 243.307 244.291 257.267 242.912C271.226 241.532 283.67 251.691 285.055 265.6Z" fill="#D7AE6E"/>
<path d="M252.057 193.134L223.077 150.933L243.172 103.883L272.15 146.085L252.057 193.134Z" fill="#D7AE6E"/>
<path d="M211.301 135.491L191.833 125.593L194.26 90.7554L219.275 115.219L211.301 135.491Z" fill="#D7AE6E"/>
<path d="M151.7 176.853L129.864 177.863L114.637 146.408L148.538 155.309L151.7 176.853Z" fill="#D7AE6E"/>
<path d="M120.177 244.047L101.874 255.949L72.7354 236.531L106.483 227.073L120.177 244.047Z" fill="#D7AE6E"/>
<path d="M272.486 109.962L292.191 81.0824L301.437 114.77L284.298 128.284L272.486 109.962Z" fill="#D7AE6E"/>
<path d="M349.748 135.438L381.236 120.081L372.504 153.903L350.894 157.178L349.748 135.438Z" fill="#D7AE6E"/>
<path d="M405.133 197.582L440.084 200.25L415.344 224.988L395.051 216.901L405.133 197.582Z" fill="#D7AE6E"/>
<path d="M290.59 199.276L286.584 148.304L327.552 117.493L331.558 168.469L290.59 199.276Z" fill="#D7AE6E"/>
<path d="M321.13 224.015L343.376 177.936L394.334 171.798L372.088 217.877L321.13 224.015Z" fill="#D7AE6E"/>
<path d="M335.054 260.666L377.52 231.948L424.685 252.131L382.215 280.848L335.054 260.666Z" fill="#D7AE6E"/>
<path d="M290.59 199.276L286.584 148.304L327.552 117.493L331.558 168.469L290.59 199.276Z" fill="#D7AE6E"/>
<path d="M321.13 224.015L343.376 177.936L394.334 171.798L372.088 217.877L321.13 224.015Z" fill="#D7AE6E"/>
<path d="M335.054 260.666L377.52 231.948L424.685 252.131L382.215 280.848L335.054 260.666Z" fill="#D7AE6E"/>
<path d="M170.878 184.337L164.758 133.568L210.999 155.767L217.119 206.532L170.878 184.337Z" fill="#D7AE6E"/>
<path d="M140.876 240.71L109.978 199.878L161.159 195.93L192.051 236.76L140.876 240.71Z" fill="#D7AE6E"/>
<path d="M143.356 304.44L96.0547 284.583L138.322 255.572L185.623 275.426L143.356 304.44Z" fill="#D7AE6E"/>
<path d="M237.136 232.987L232.36 193.292L253.975 226.975L237.136 232.987Z" fill="#D7AE6E"/>
<path d="M258.011 226.486L273.537 189.622L275.633 229.545L258.011 226.486Z" fill="#D7AE6E"/>
<path d="M279.657 231.244L311.608 207.05L293.386 242.669L279.657 231.244Z" fill="#D7AE6E"/>
<path d="M296.016 246.147L335.83 241.101L302.172 262.872L296.016 246.147Z" fill="#D7AE6E"/>
<path d="M222.292 248.735L198.608 216.463L234.02 235.278L222.292 248.735Z" fill="#D7AE6E"/>
<path d="M217.105 269.85L180.526 253.393L220.651 252.387L217.105 269.85Z" fill="#D7AE6E"/>
<path d="M202.461 280.005L234.367 345.408L191.275 441.187L261.894 375.011L294.681 441.187V337.307L321.13 268.777L261.894 318.275L202.461 280.005Z" fill="#D7AE6E"/>
</svg>
